#!OML:ASF E:\Steps\Project 1\Capture day 1\Session 2\Subject.ASF
:FULLY-SPECIFIED
:DEGREES
66
root 16.1682 16.3391 21.1531 -154.883 -0.249636 177.689
lowerback -30.2603 -2.08146 -7.53576
upperback -1.03666 -0.782254 -0.0718514
thorax 14.8083 -1.13103 3.62641
lowerneck -5.87377 -1.55763 -0.888552
upperneck 4.70807 -2.19793 3.97722
head 2.58189 -0.960359 1.34562
rclavicle -1.2921e-015 -1.2921e-014
rhumerus -36.2751 -19.5172 -79.1502
rradius 30.8382
rwrist -5.01589
rhand -13.5579 -71.0062
rfingers 7.12502
rthumb 12.5554 -259.391
lclavicle -1.2921e-015 -1.2921e-014
lhumerus -30.6176 7.06538 81.1028
lradius 21.2661
lwrist -3.75864
lhand -22.7414 -13.0577
lfingers 7.12502
lthumb 3.69286 16.8901
rfemur -22.7314 7.55221 18.4778
rtibia 8.79133
rfoot -19.1182 -2.93153
rtoes -18.7165
lfemur -23.3197 -8.34352 -21.8647
ltibia 8.67278
lfoot -6.87849 -2.69012
ltoes -32.8997
67
root 16.1695 16.3412 21.1551 -154.931 -0.26284 177.679
lowerback -30.1821 -2.07439 -7.56968
upperback -1.02816 -0.764373 -0.0620978
thorax 14.7813 -1.12315 3.66464
lowerneck -5.87616 -1.60913 -0.789926
upperneck 4.82155 -2.27169 3.84425
head 2.618 -0.998501 1.28232
rclavicle -5.41688e-015 -1.15295e-014
rhumerus -36.2327 -19.5452 -79.145
rradius 30.8143
rwrist -5.09119
rhand -13.6367 -71.2257
rfingers 7.12502
rthumb 12.4794 -259.167
lclavicle -5.41688e-015 -1.15295e-014
lhumerus -30.6092 7.01481 81.1396
lradius 21.2881
lwrist -3.78495
lhand -22.9918 -13.3023
lfingers 7.12502
lthumb 3.45102 16.6495
rfemur -22.6959 7.53422 18.4813
rtibia 8.81581
rfoot -19.1083 -2.88872
rtoes -18.1089
lfemur -23.2379 -8.38426 -21.8757
ltibia 8.46341
lfoot -6.74713 -2.60509
ltoes -33.7023
68
root 16.1729 16.3417 21.156 -154.943 -0.220855 177.677
lowerback -30.1929 -2.04881 -7.61411
upperback -1.00803 -0.710666 -0.0645383
thorax 14.8033 -1.1025 3.70769
lowerneck -5.82932 -1.55297 -0.809741
upperneck 4.80562 -2.29801 3.8918
head 2.60576 -1.05602 1.29824
rclavicle 8.44835e-015 -3.45885e-014
rhumerus -36.2081 -19.6122 -79.166
rradius 30.839
rwrist -5.16989
rhand -13.7261 -71.4336
rfingers 7.12502
rthumb 12.3932 -258.954
lclavicle 8.44835e-015 -3.45885e-014
lhumerus -30.5507 6.83622 81.2166
lradius 21.3048
lwrist -3.77147
lhand -23.2121 -13.3721
lfingers 7.12502
lthumb 3.23826 16.5831
rfemur -22.7304 7.64806 18.4577
rtibia 8.88208
rfoot -19.0504 -2.9065
rtoes -17.7416
lfemur -23.2548 -8.34371 -21.8724
ltibia 8.51281
lfoot -6.77065 -2.5769
ltoes -33.8595
69
root 16.1756 16.3403 21.1553 -154.911 -0.191573 177.673
lowerback -30.231 -2.00781 -7.58319
upperback -1.03255 -0.665471 -0.109293
thorax 14.7851 -1.08049 3.65885
lowerneck -5.79493 -1.5152 -0.819685
upperneck 4.76676 -2.2556 4.01095
head 2.58776 -1.03343 1.34045
rclavicle -2.5345e-015 4.4329e-014
rhumerus -36.2887 -19.6055 -79.2429
rradius 30.9353
rwrist -5.21006
rhand -13.8094 -71.671
rfingers 7.12502
rthumb 12.3129 -258.711
lclavicle -2.5345e-015 4.4329e-014
lhumerus -30.5891 6.65463 81.2192
lradius 21.3511
lwrist -3.77591
lhand -23.1687 -13.2861
lfingers 7.12502
lthumb 3.28018 16.6684
rfemur -22.7894 7.68909 18.434
rtibia 8.92072
rfoot -19.0314 -2.89811
rtoes -17.5151
lfemur -23.2719 -8.46882 -21.8205
ltibia 8.61481
lfoot -6.91302 -2.47284
ltoes -33.6449
70
root 16.176 16.3399 21.1556 -154.895 -0.206011 177.646
lowerback -30.2121 -1.99437 -7.57701
upperback -1.07293 -0.657436 -0.125576
thorax 14.7276 -1.07564 3.64067
lowerneck -5.69716 -1.37463 -1.02537
upperneck 4.64491 -2.06848 4.30686
head 2.53279 -0.939292 1.48059
rclavicle 3.67752e-015 1.98785e-015
rhumerus -36.3766 -19.6318 -79.2227
rradius 30.9906
rwrist -5.10161
rhand -13.8781 -71.9456
rfingers 7.12502
rthumb 12.2467 -258.433
lclavicle 3.67752e-015 1.98785e-015
lhumerus -30.6068 6.75355 81.1574
lradius 21.3158
lwrist -3.89696
lhand -22.8306 -13.5198
lfingers 7.12502
lthumb 3.60667 16.4295
rfemur -22.8056 7.62383 18.41
rtibia 8.92856
rfoot -19.0446 -2.9151
rtoes -17.4523
lfemur -23.2326 -8.56068 -21.8338
ltibia 8.51681
lfoot -6.93275 -2.41236
ltoes -34.0997
71
root 16.1777 16.3414 21.158 -154.892 -0.211157 177.62
lowerback -30.1861 -2.00601 -7.6545
upperback -1.08431 -0.652743 -0.102495
thorax 14.702 -1.07855 3.71003
lowerneck -5.65111 -1.34522 -1.13498
upperneck 4.62765 -2.02718 4.41246
head 2.52108 -0.918769 1.53619
rclavicle -2.48481e-016 -1.78906e-015
rhumerus -36.4261 -19.6554 -79.1606
rradius 31.0452
rwrist -5.07495
rhand -13.9701 -72.2035
rfingers 7.12502
rthumb 12.1579 -258.17
lclavicle -2.48481e-016 -1.78906e-015
lhumerus -30.5628 6.93084 81.1313
lradius 21.2642
lwrist -4.07295
lhand -22.6236 -13.6803
lfingers 7.12502
lthumb 3.80657 16.2655
rfemur -22.8086 7.60454 18.393
rtibia 8.89426
rfoot -19.0362 -2.96438
rtoes -17.9787
lfemur -23.2705 -8.48795 -21.8795
ltibia 8.43676
lfoot -6.8564 -2.44972
ltoes -34.5454
72
root 16.1805 16.342 21.1578 -154.904 -0.182863 177.625
lowerback -30.21 -2.04051 -7.70055
upperback -1.05216 -0.682143 -0.0373951
thorax 14.7557 -1.09691 3.79453
lowerneck -5.72246 -1.40807 -1.10374
upperneck 4.62826 -2.09645 4.21739
head 2.53231 -0.955452 1.46404
rclavicle 2.23633e-015 -5.76476e-015
rhumerus -36.3858 -19.4799 -79.1612
rradius 31.1215
rwrist -5.21587
rhand -14.0755 -72.4644
rfingers 7.12502
rthumb 12.0563 -257.903
lclavicle 2.23633e-015 -5.76476e-015
lhumerus -30.5425 7.10022 81.1829
lradius 21.2966
lwrist -4.18512
lhand -22.7244 -13.451
lfingers 7.12502
lthumb 3.70926 16.4965
rfemur -22.7897 7.63238 18.4045
rtibia 8.85698
rfoot -18.9801 -2.92677
rtoes -18.4083
lfemur -23.3365 -8.35818 -21.8823
ltibia 8.57339
lfoot -6.81332 -2.5624
ltoes -33.5502
73
root 16.183 16.3418 21.1558 -154.912 -0.150756 177.676
lowerback -30.233 -1.96811 -7.6042
upperback -1.01108 -0.602811 -0.0973329
thorax 14.8043 -1.05416 3.70907
lowerneck -5.96231 -1.46596 -0.824575
upperneck 4.80178 -2.19517 4.06485
head 2.63027 -0.999843 1.36118
rclavicle -6.80837e-015 -4.57205e-015
rhumerus -36.3568 -19.7205 -79.2002
rradius 31.1319
rwrist -5.10431
rhand -14.1671 -72.6813
rfingers 7.12502
rthumb 11.968 -257.681
lclavicle -6.80837e-015 -4.57205e-015
lhumerus -30.4319 6.93675 81.161
lradius 21.3112
lwrist -4.15059
lhand -22.6349 -13.2334
lfingers 7.12502
lthumb 3.79569 16.7125
rfemur -22.7866 7.71254 18.4577
rtibia 8.86272
rfoot -18.9321 -2.90361
rtoes -18.5381
lfemur -23.3433 -8.34236 -21.7878
ltibia 8.72037
lfoot -6.89082 -2.57621
ltoes -32.4154
74
root 16.1877 16.3426 21.1529 -154.939 -0.126854 177.699
lowerback -30.2372 -1.99057 -7.5414
upperback -1.04874 -0.661846 -0.0983637
thorax 14.7689 -1.07656 3.64948
lowerneck -5.9274 -1.49142 -0.725069
upperneck 5.05344 -2.23933 3.93381
head 2.70529 -1.02201 1.30019
rclavicle 8.44835e-016 -2.46493e-014
rhumerus -36.4244 -19.635 -79.2319
rradius 31.079
rwrist -5.04367
rhand -14.2517 -72.8528
rfingers 7.12502
rthumb 11.8864 -257.505
lclavicle 8.44835e-016 -2.46493e-014
lhumerus -30.5656 7.14503 81.0307
lradius 21.3074
lwrist -4.22339
lhand -22.3339 -13.3937
lfingers 7.12502
lthumb 4.08636 16.5468
rfemur -22.7376 7.8565 18.4711
rtibia 8.82537
rfoot -18.9147 -3.02554
rtoes -18.4442
lfemur -23.231 -8.51172 -21.68
ltibia 8.62181
lfoot -6.99885 -2.36534
ltoes -32.2702
75
root 16.1842 16.341 21.1574 -154.907 -0.346697 177.704
lowerback -30.1646 -2.04329 -7.40072
upperback -1.11658 -0.795825 -0.0970627
thorax 14.6723 -1.12446 3.52182
lowerneck -5.85493 -1.58689 -0.722473
upperneck 5.16304 -2.25524 3.88651
head 2.72823 -0.981081 1.28665
rclavicle -2.23633e-015 -3.37934e-015
rhumerus -36.5064 -19.4732 -79.2738
rradius 31.098
rwrist -5.13184
rhand -14.3409 -73.0696
rfingers 7.12502
rthumb 11.8003 -257.283
lclavicle -2.23633e-015 -3.37934e-015
lhumerus -30.6957 7.37489 80.9183
lradius 21.3203
lwrist -4.38747
lhand -22.2097 -13.5777
lfingers 7.12502
lthumb 4.20628 16.3605
rfemur -22.6911 7.53423 18.574
rtibia 8.76085
rfoot -18.9702 -2.87009
rtoes -17.7598
lfemur -23.2494 -8.65798 -21.6764
ltibia 8.60455
lfoot -7.01137 -2.40737
ltoes -32.1736
76
root 16.188 16.3393 21.1588 -154.893 -0.307562 177.717
lowerback -30.1818 -2.05637 -7.42236
upperback -1.1091 -0.806853 -0.0688628
thorax 14.6909 -1.13202 3.55967
lowerneck -5.7085 -1.52308 -0.96045
upperneck 5.01599 -2.15814 4.13206
head 2.65768 -0.93206 1.41268
rclavicle -8.29926e-015 -1.66979e-014
rhumerus -36.5116 -19.3529 -79.272
rradius 31.1344
rwrist -5.24325
rhand -14.4488 -73.2734
rfingers 7.12502
rthumb 11.6964 -257.073
lclavicle -8.29926e-015 -1.66979e-014
lhumerus -30.7108 7.47551 80.9211
lradius 21.3487
lwrist -4.43372
lhand -22.3024 -13.5462
lfingers 7.12502
lthumb 4.11673 16.3938
rfemur -22.7675 7.68105 18.5507
rtibia 8.8255
rfoot -18.9345 -2.91257
rtoes -17.6448
lfemur -23.3126 -8.55898 -21.6534
ltibia 8.67574
lfoot -6.98507 -2.39202
ltoes -33.2153
77
root 16.1887 16.3383 21.1593 -154.885 -0.241321 177.678
lowerback -30.2268 -2.0403 -7.46077
upperback -1.07148 -0.759812 -0.095637
thorax 14.7492 -1.11441 3.56934
lowerneck -5.64814 -1.49926 -1.0697
upperneck 4.90122 -2.12349 4.3549
head 2.6132 -0.910323 1.50594
rclavicle -9.44227e-016 5.96354e-015
rhumerus -36.5008 -19.3447 -79.2951
rradius 31.1831
rwrist -5.30193
rhand -14.5498 -73.5344
rfingers 7.12502
rthumb 11.5989 -256.807
lclavicle -9.44227e-016 5.96354e-015
lhumerus -30.6462 7.39025 80.9521
lradius 21.3636
lwrist -4.38846
lhand -22.4115 -13.4458
lfingers 7.12502
lthumb 4.01144 16.4962
rfemur -22.8171 7.68252 18.4862
rtibia 8.871
rfoot -18.806 -2.97
rtoes -18.3282
lfemur -23.3339 -8.51242 -21.7194
ltibia 8.69022
lfoot -6.99728 -2.42509
ltoes -32.8717
78
root 16.1886 16.3358 21.1577 -154.86 -0.185847 177.65
lowerback -30.2949 -2.00986 -7.45971
upperback -1.04637 -0.706928 -0.137693
thorax 14.8022 -1.09191 3.5427
lowerneck -5.72036 -1.53989 -0.96507
upperneck 4.91048 -2.18549 4.35518
head 2.62986 -0.937414 1.4849
rclavicle 6.31141e-015 -1.80894e-014
rhumerus -36.4944 -19.3178 -79.3788
rradius 31.2582
rwrist -5.3962
rhand -14.6353 -73.87
rfingers 7.12502
rthumb 11.5165 -256.466
lclavicle 6.31141e-015 -1.80894e-014
lhumerus -30.5914 7.36338 80.9288
lradius 21.3472
lwrist -4.41725
lhand -22.4748 -13.4191
lfingers 7.12502
lthumb 3.95028 16.524
rfemur -22.8544 7.6532 18.4493
rtibia 8.8917
rfoot -18.8114 -2.99773
rtoes -18.5941
lfemur -23.3191 -8.54176 -21.7618
ltibia 8.62673
lfoot -7.0047 -2.41647
ltoes -33.4218
79
root 16.1898 16.3419 21.1564 -155.092 -0.233718 177.626
lowerback -30.0531 -2.02619 -7.46932
upperback -0.986633 -0.724163 -0.135372
thorax 14.766 -1.09276 3.54991
lowerneck -5.77998 -1.5451 -0.919582
upperneck 5.01956 -2.19642 4.28622
head 2.6758 -0.942284 1.45433
rclavicle -3.23025e-015 -3.67752e-014
rhumerus -36.475 -19.1887 -79.4218
rradius 31.3065
rwrist -5.59679
rhand -14.7304 -74.1303
rfingers 7.12502
rthumb 11.4248 -256.201
lclavicle -3.23025e-015 -3.67752e-014
lhumerus -30.542 7.38868 80.9348
lradius 21.2969
lwrist -4.4159
lhand -22.5183 -13.494
lfingers 7.12502
lthumb 3.90828 16.4499
rfemur -22.5577 7.62515 18.4797
rtibia 8.85127
rfoot -18.9095 -2.99055
rtoes -18.5365
lfemur -22.9971 -8.58622 -21.8094
ltibia 8.51764
lfoot -6.91775 -2.43052
ltoes -33.1863
